<svg width="71" height="26" viewBox="0 0 71 26" fill="none" xmlns="http://www.w3.org/2000/svg">
<path d="M4.8824 25.394V19.9947H9.4209V5.5654H6.61955L5.99355 10.8395H0.829047V0.479148H26.1508V10.8395H20.9863L20.3603 5.5654H17.5589V19.9947H22.0974V25.394H4.8824ZM39.4314 25.8478C37.449 25.8478 35.811 25.587 34.5173 25.0653C33.2235 24.5332 32.1906 23.8237 31.4186 22.9369L30.6204 25.394H26.3167V17.0056H32.1541C32.3523 18.2158 32.9575 19.2122 33.9695 19.9947C34.9815 20.7668 36.2596 21.1528 37.8038 21.1528C38.6489 21.1528 39.3009 20.9859 39.76 20.652C40.2191 20.3077 40.4486 19.8382 40.4486 19.2435C40.4486 18.5966 40.193 18.1063 39.6818 17.7724C39.1705 17.4385 38.4924 17.1777 37.6473 16.9899C36.8022 16.8021 35.8736 16.6195 34.8616 16.4422C33.8495 16.2648 32.8375 16.0196 31.8255 15.7066C30.8134 15.3936 29.8849 14.9345 29.0398 14.3294C28.1947 13.7243 27.5165 12.9053 27.0053 11.8724C26.494 10.829 26.2384 9.49355 26.2384 7.86595C26.2384 6.29052 26.614 4.91332 27.3652 3.73435C28.1268 2.55538 29.2171 1.63725 30.6361 0.979949C32.055 0.322648 33.7556 -0.00600215 35.738 -0.00600215C37.5116 -0.00600215 38.9932 0.249615 40.1826 0.760848C41.372 1.27208 42.3423 1.9972 43.0935 2.9362L43.8916 0.479148H48.1954V8.55455H42.2327C41.9302 7.31299 41.325 6.35834 40.4173 5.6906C39.52 5.02287 38.4767 4.689 37.2873 4.689C36.4422 4.689 35.7693 4.85072 35.2685 5.17415C34.7677 5.48715 34.5173 5.95144 34.5173 6.567C34.5173 7.14084 34.7729 7.57904 35.2841 7.8816C35.7953 8.18417 36.4735 8.42935 37.3186 8.61715C38.1637 8.80495 39.0923 8.99797 40.1043 9.1962C41.1163 9.39444 42.1284 9.66571 43.1404 10.01C44.1525 10.3543 45.081 10.8395 45.9261 11.4655C46.7712 12.081 47.4494 12.9053 47.9606 13.9382C48.4719 14.9711 48.7275 16.2804 48.7275 17.8663C48.7275 20.3494 47.9032 22.3005 46.2548 23.7194C44.6063 25.1383 42.3318 25.8478 39.4314 25.8478ZM49.1125 25.394V19.9947H51.6165V5.8784H49.1125V0.479148H70.9599V10.8395H65.7954L65.2476 5.80015H59.5667V10.0257H63.6357V15.3467H59.5667V19.9947H64.1052V25.394H49.1125Z" fill="white"/>
</svg>
