<svg xmlns="http://www.w3.org/2000/svg" xmlns:xlink="http://www.w3.org/1999/xlink" width="1080" zoomAndPan="magnify" viewBox="0 0 810 809.999993" height="1080" preserveAspectRatio="xMidYMid meet" version="1.0"><defs><g/><clipPath id="48b0da736f"><path d="M 701 116 L 810 116 L 810 400 L 701 400 Z M 701 116 " clip-rule="nonzero"/></clipPath><clipPath id="1558f4feed"><rect x="0" width="810" y="0" height="537"/></clipPath></defs><g transform="matrix(1, 0, 0, 1, 0, 135)"><g clip-path="url(#1558f4feed)"><g fill="#000000" fill-opacity="1"><g transform="translate(0.0000035, 399.638381)"><g><path d="M 217.03125 -268.71875 L 217.03125 -216.265625 L 145.84375 -216.265625 L 145.84375 0 L 80.390625 0 L 80.390625 -216.265625 L 9.1875 -216.265625 L 9.1875 -268.71875 Z M 217.03125 -268.71875 "/></g></g></g><g fill="#000000" fill-opacity="1"><g transform="translate(226.194237, 399.638381)"><g><path d="M 120.953125 2.671875 C 101.304688 2.671875 83.695312 -0.515625 68.125 -6.890625 C 52.5625 -13.265625 40.125 -22.703125 30.8125 -35.203125 C 21.5 -47.710938 16.585938 -62.773438 16.078125 -80.390625 L 85.75 -80.390625 C 86.769531 -70.429688 90.210938 -62.835938 96.078125 -57.609375 C 101.941406 -52.378906 109.597656 -49.765625 119.046875 -49.765625 C 128.742188 -49.765625 136.398438 -51.992188 142.015625 -56.453125 C 147.628906 -60.921875 150.4375 -67.113281 150.4375 -75.03125 C 150.4375 -81.664062 148.203125 -87.148438 143.734375 -91.484375 C 139.265625 -95.816406 133.773438 -99.382812 127.265625 -102.1875 C 120.765625 -105 111.515625 -108.191406 99.515625 -111.765625 C 82.171875 -117.128906 68.007812 -122.488281 57.03125 -127.84375 C 46.0625 -133.207031 36.617188 -141.117188 28.703125 -151.578125 C 20.796875 -162.046875 16.84375 -175.695312 16.84375 -192.53125 C 16.84375 -217.539062 25.898438 -237.128906 44.015625 -251.296875 C 62.140625 -265.460938 85.742188 -272.546875 114.828125 -272.546875 C 144.429688 -272.546875 168.289062 -265.460938 186.40625 -251.296875 C 204.53125 -237.128906 214.226562 -217.414062 215.5 -192.15625 L 144.6875 -192.15625 C 144.175781 -200.832031 140.984375 -207.65625 135.109375 -212.625 C 129.242188 -217.601562 121.71875 -220.09375 112.53125 -220.09375 C 104.625 -220.09375 98.242188 -217.988281 93.390625 -213.78125 C 88.546875 -209.570312 86.125 -203.507812 86.125 -195.59375 C 86.125 -186.925781 90.207031 -180.164062 98.375 -175.3125 C 106.539062 -170.46875 119.300781 -165.238281 136.65625 -159.625 C 154.007812 -153.75 168.109375 -148.128906 178.953125 -142.765625 C 189.796875 -137.410156 199.171875 -129.628906 207.078125 -119.421875 C 214.992188 -109.210938 218.953125 -96.070312 218.953125 -80 C 218.953125 -64.6875 215.054688 -50.773438 207.265625 -38.265625 C 199.484375 -25.765625 188.191406 -15.816406 173.390625 -8.421875 C 158.597656 -1.023438 141.117188 2.671875 120.953125 2.671875 Z M 120.953125 2.671875 "/></g></g></g><g fill="#000000" fill-opacity="1"><g transform="translate(461.573995, 399.638381)"><g><path d="M 120.953125 2.671875 C 101.304688 2.671875 83.695312 -0.515625 68.125 -6.890625 C 52.5625 -13.265625 40.125 -22.703125 30.8125 -35.203125 C 21.5 -47.710938 16.585938 -62.773438 16.078125 -80.390625 L 85.75 -80.390625 C 86.769531 -70.429688 90.210938 -62.835938 96.078125 -57.609375 C 101.941406 -52.378906 109.597656 -49.765625 119.046875 -49.765625 C 128.742188 -49.765625 136.398438 -51.992188 142.015625 -56.453125 C 147.628906 -60.921875 150.4375 -67.113281 150.4375 -75.03125 C 150.4375 -81.664062 148.203125 -87.148438 143.734375 -91.484375 C 139.265625 -95.816406 133.773438 -99.382812 127.265625 -102.1875 C 120.765625 -105 111.515625 -108.191406 99.515625 -111.765625 C 82.171875 -117.128906 68.007812 -122.488281 57.03125 -127.84375 C 46.0625 -133.207031 36.617188 -141.117188 28.703125 -151.578125 C 20.796875 -162.046875 16.84375 -175.695312 16.84375 -192.53125 C 16.84375 -217.539062 25.898438 -237.128906 44.015625 -251.296875 C 62.140625 -265.460938 85.742188 -272.546875 114.828125 -272.546875 C 144.429688 -272.546875 168.289062 -265.460938 186.40625 -251.296875 C 204.53125 -237.128906 214.226562 -217.414062 215.5 -192.15625 L 144.6875 -192.15625 C 144.175781 -200.832031 140.984375 -207.65625 135.109375 -212.625 C 129.242188 -217.601562 121.71875 -220.09375 112.53125 -220.09375 C 104.625 -220.09375 98.242188 -217.988281 93.390625 -213.78125 C 88.546875 -209.570312 86.125 -203.507812 86.125 -195.59375 C 86.125 -186.925781 90.207031 -180.164062 98.375 -175.3125 C 106.539062 -170.46875 119.300781 -165.238281 136.65625 -159.625 C 154.007812 -153.75 168.109375 -148.128906 178.953125 -142.765625 C 189.796875 -137.410156 199.171875 -129.628906 207.078125 -119.421875 C 214.992188 -109.210938 218.953125 -96.070312 218.953125 -80 C 218.953125 -64.6875 215.054688 -50.773438 207.265625 -38.265625 C 199.484375 -25.765625 188.191406 -15.816406 173.390625 -8.421875 C 158.597656 -1.023438 141.117188 2.671875 120.953125 2.671875 Z M 120.953125 2.671875 "/></g></g></g><g clip-path="url(#48b0da736f)"><g fill="#000000" fill-opacity="1"><g transform="translate(696.966211, 399.638381)"><g><path d="M 119.8125 -283.265625 L 69.671875 0 L 4.203125 0 L 54.359375 -283.265625 Z M 119.8125 -283.265625 "/></g></g></g></g></g></g></svg>